
nColumns=19
nRows=80
DataType=double
version=3
OpenSimVersion=4.4-2022-10-11-798caa840
endheader
time	ground_force_calcn_r_vx	ground_force_calcn_r_vy	ground_force_calcn_r_vz	ground_force_calcn_r_px	ground_force_calcn_r_py	ground_force_calcn_r_pz	ground_force_calcn_r_mx	ground_force_calcn_r_my	ground_force_calcn_r_mz	ground_force_calcn_l_vx	ground_force_calcn_l_vy	ground_force_calcn_l_vz	ground_force_calcn_l_px	ground_force_calcn_l_py	ground_force_calcn_l_pz	ground_force_calcn_l_mx	ground_force_calcn_l_my	ground_force_calcn_l_mz
1.47	-190.116	308.105	6.21697	-0.161796	0	-0.477523	-0.257005	0.416506	0.00840429	0	0	0	0	0	0	0	0	0
1.48	-487.201	920.0940000000001	-0.834823	-0.168986	0	-0.474994	-1.30075	2.45651	-0.00222885	0	0	0	0	0	0	0	0	0
1.49	-257.626	1040.22	-58.4658	-0.196379	0	-0.473518	-1.1375	4.59291	-0.258145	0	0	0	0	0	0	0	0	0
1.5	-79.9062	1639.41	-68.4444	-0.252419	0	-0.476274	0.09606140000000001	-1.97086	0.0822823	0	0	0	0	0	0	0	0	0
1.51	-63.5867	2222.49	-3.47328	-0.272115	0	-0.48006	0.327653	-11.4522	0.0178973	0	0	0	0	0	0	0	0	0
1.52	-262.834	1738.94	14.6567	-0.258185	0	-0.480071	2.22051	-14.6912	-0.123825	0	0	0	0	0	0	0	0	0
1.53	-400.643	1177.19	-43.9595	-0.226209	0	-0.475291	3.50959	-10.312	0.38508	-26.745	25.8965	0.724699	-0.0158056	0	-0.741362	0.314105	-0.30414	-0.00851118
1.54	-320.209	977.778	-91.9134	-0.207542	0	-0.471859	2.03551	-6.21554	0.584276	-91.8019	126.425	1.19058	-0.06687899999999999	0	-0.771487	0.127199	-0.175172	-0.00164964
1.55	-249.61	962.491	-103.651	-0.20236	0	-0.471146	1.31642	-5.07607	0.546646	-82.0744	172.354	1.64006	-0.0758688	0	-0.766478	0.11949	-0.250925	-0.00238772
1.56	-265.019	970.502	-91.12009999999999	-0.197142	0	-0.471975	1.47593	-5.40489	0.507463	-11.7873	152.24	-13.8157	-0.0848569	0	-0.753723	-0.109673	1.41649	-0.128545
1.57	-248.774	965.996	-74.38630000000001	-0.194816	0	-0.472982	1.57014	-6.09692	0.469491	10.4539	148.952	-28.9967	-0.09107750000000001	0	-0.739473	0.233461	3.32647	-0.647566
1.58	-191.549	961.522	-64.1123	-0.196592	0	-0.473396	1.32359	-6.64403	0.443011	-3.31603	163.239	-31.5106	-0.0967176	0	-0.737523	-0.0832188	4.09663	-0.790788
1.59	-145.215	965.918	-59.0706	-0.199578	0	-0.473214	0.996125	-6.62585	0.405203	-29.805	182.727	-28.4376	-0.099816	0	-0.7393729999999999	-0.72433	4.44068	-0.691098
1.6	-118.928	966.546	-57.121	-0.201812	0	-0.472643	0.767645	-6.23876	0.368699	-59.9129	204.317	-17.9559	-0.101111	0	-0.742722	-1.26752	4.32252	-0.379876
1.61	-101.341	953.4	-51.8625	-0.202579	0	-0.472254	0.644332	-6.0618	0.329746	-77.5752	218.205	-0.551674	-0.10223	0	-0.74616	-1.38823	3.90485	-0.00987237
1.62	-91.1897	930.201	-41.6174	-0.201626	0	-0.472336	0.594274	-6.06202	0.271216	-85.0117	225.638	16.4669	-0.104003	0	-0.749158	-1.29991	3.45021	0.251795
1.63	-86.1665	894.982	-34.5292	-0.199491	0	-0.472458	0.531972	-5.52542	0.213175	-93.06789999999999	238.267	31.1772	-0.106895	0	-0.751877	-1.26443	3.2371	0.423575
1.64	-84.5915	850.313	-33.769	-0.196918	0	-0.472264	0.429075	-4.31306	0.171287	-103.41	265.137	43.427	-0.111857	0	-0.753884	-1.34338	3.44434	0.564152
1.65	-85.8186	804.141	-34.4608	-0.194507	0	-0.472085	0.32066	-3.00466	0.128762	-107.724	305.772	50.3174	-0.120653	0	-0.75398	-1.50997	4.28603	0.705304
1.66	-86.75449999999999	765.03	-33.2518	-0.192796	0	-0.472232	0.248367	-2.19018	0.09519560000000001	-102.566	345.675	51.3155	-0.13055	0	-0.752958	-1.67593	5.64834	0.838496
1.67	-84.34569999999999	739.519	-30.2714	-0.19204	0	-0.472775	0.215358	-1.8882	0.0772914	-97.03919999999999	366.042	50.5134	-0.137317	0	-0.752443	-1.81645	6.85182	0.945545
1.68	-77.59990000000001	729.388	-26.4239	-0.192187	0	-0.473584	0.207283	-1.94832	0.0705827	-98.1943	362.122	48.6375	-0.139865	0	-0.75247	-2.03982	7.52248	1.01036
1.69	-67.37	731.423	-22.8204	-0.19311	0	-0.474581	0.209208	-2.27133	0.0708657	-103.649	346.36	45.1382	-0.139817	0	-0.752572	-2.32205	7.75953	1.01123
1.7	-55.7661	739.295	-20.2904	-0.194449	0	-0.475555	0.206656	-2.73965	0.07519140000000001	-107.774	332.565	41.2555	-0.14011	0	-0.752615	-2.53919	7.83533	0.971992
1.71	-45.4419	746.121	-18.926	-0.195838	0	-0.476442	0.196048	-3.21896	0.0816516	-108.073	325.62	38.2264	-0.141665	0	-0.752413	-2.63592	7.94196	0.932351
1.72	-38.1249	748.0309999999999	-18.597	-0.197081	0	-0.477144	0.183283	-3.59611	0.08940380000000001	-104.289	324.952	37.6574	-0.144464	0	-0.752015	-2.57376	8.01956	0.929355
1.73	-33.6848	743.049	-19.5987	-0.1981	0	-0.477582	0.169757	-3.74465	0.0987688	-96.8355	326.587	40.2307	-0.148155	0	-0.751927	-2.34979	7.92488	0.976229
1.74	-32.2739	730.842	-21.7721	-0.19882	0	-0.477848	0.162217	-3.67341	0.109432	-87.6816	325.874	44.8985	-0.151934	0	-0.7523609999999999	-2.06089	7.65943	1.05531
1.75	-33.3146	712.651	-24.3796	-0.199174	0	-0.478033	0.162522	-3.4766	0.118934	-78.22750000000001	321.706	48.7702	-0.155418	0	-0.753085	-1.7884	7.35472	1.11496
1.76	-35.2508	691.015	-26.5765	-0.199375	0	-0.478185	0.166872	-3.27115	0.125809	-69.2105	314.429	50.1998	-0.158798	0	-0.753508	-1.55122	7.04733	1.12513
1.77	-36.5079	669.72	-27.7288	-0.199708	0	-0.478489	0.175297	-3.21574	0.133143	-60.8131	303.716	49.6537	-0.161918	0	-0.753571	-1.34149	6.69975	1.09532
1.78	-36.5061	651.522	-27.7665	-0.200371	0	-0.479021	0.187258	-3.34198	0.142428	-52.7655	290.318	47.9828	-0.164746	0	-0.753674	-1.14283	6.28787	1.03924
1.79	-35.2314	635.982	-27.3785	-0.201484	0	-0.479531	0.195971	-3.53759	0.15229	-44.9258	275.94	45.6684	-0.1678	0	-0.753592	-0.9498529999999999	5.83411	0.965553
1.8	-33.6078	621.691	-26.7622	-0.202861	0	-0.479859	0.201695	-3.73104	0.160612	-37.356	262.394	43.3941	-0.171217	0	-0.753088	-0.771409	5.41849	0.896099
1.81	-32.4698	607.072	-25.5027	-0.204379	0	-0.480212	0.204863	-3.83022	0.160905	-30.6332	253.057	41.541	-0.174686	0	-0.752671	-0.619468	5.11734	0.840046
1.82	-31.2516	591.317	-24.3101	-0.206001	0	-0.480448	0.199738	-3.77929	0.155373	-24.7849	249.274	39.7386	-0.178304	0	-0.75206	-0.487999	4.90804	0.782427
1.83	-30.057	574.433	-24.0342	-0.207707	0	-0.48044	0.189591	-3.62336	0.151601	-19.3697	247.515	37.9072	-0.18182	0	-0.751289	-0.371086	4.7419	0.726227
1.84	-29.3508	557.4	-24.7969	-0.209512	0	-0.480091	0.177825	-3.37706	0.150234	-14.5594	243.897	36.119	-0.18581	0	-0.750451	-0.273257	4.57757	0.677898
1.85	-28.4433	540.871	-26.5853	-0.211507	0	-0.47969	0.160306	-3.04835	0.149835	-10.9605	237.541	34.2508	-0.189225	0	-0.7496	-0.201703	4.3714	0.630309
1.86	-26.9697	524.453	-28.5174	-0.213652	0	-0.47952	0.134516	-2.61579	0.142235	-8.31291	229.824	32.1454	-0.192521	0	-0.749118	-0.150664	4.16536	0.582607
1.87	-24.8981	508.529	-29.6715	-0.215998	0	-0.479362	0.110287	-2.25255	0.131431	-5.60381	222.141	30.3573	-0.195568	0	-0.748624	-0.0988431	3.91825	0.535459
1.88	-22.3067	493.778	-30.0855	-0.21852	0	-0.479249	0.09054570000000001	-2.0043	0.12212	-2.22601	215.111	29.5918	-0.198396	0	-0.747721	-0.0374583	3.61979	0.497957
1.89	-19.5659	480.098	-30.0214	-0.221172	0	-0.479324	0.0716469	-1.75804	0.109933	1.70802	209.281	29.6269	-0.201234	0	-0.747422	0.0268157	3.2857	0.465139
1.9	-16.6543	467.913	-29.7231	-0.224038	0	-0.479504	0.0535983	-1.50588	0.0956576	5.97583	203.489	29.7648	-0.203832	0	-0.747342	0.0859076	2.92532	0.427894
1.91	-13.6513	457.777	-29.1137	-0.227076	0	-0.47976	0.0385546	-1.29288	0.08222450000000001	10.1552	197.141	29.8728	-0.205881	0	-0.7471410000000001	0.133001	2.58194	0.391241
1.92	-10.4546	449.168	-28.3314	-0.230454	0	-0.479894	0.0256565	-1.1023	0.0695277	13.8501	190.557	29.6823	-0.207281	0	-0.747116	0.161135	2.21698	0.345329
1.93	-7.20637	439.696	-27.3398	-0.234056	0	-0.480103	0.0139939	-0.853839	0.0530907	17.0736	183.313	29.0503	-0.20924	0	-0.746963	0.180569	1.9387	0.307233
1.94	-4.68448	427.848	-26.4775	-0.237412	0	-0.480311	0.0060974	-0.556894	0.0344637	19.5131	175.675	28.0923	-0.211252	0	-0.746794	0.185717	1.67199	0.26737
1.95	-3.62031	414.324	-25.9425	-0.240387	0	-0.48034	0.0025055	-0.28674	0.017954	21.248	167.338	26.7841	-0.212589	0	-0.746484	0.178238	1.40371	0.224677
1.96	-3.82419	400.815	-25.7301	-0.243237	0	-0.480371	0.000583192	-0.0611245	0.00392386	22.5391	158.215	25.1611	-0.213212	0	-0.746055	0.162297	1.13926	0.181177
1.97	-3.73266	389.063	-26.1178	-0.246014	0	-0.480143	-0.00145253	0.1514	-0.0101635	23.3302	149.023	23.4075	-0.213447	0	-0.745845	0.14407	0.920251	0.144547
1.98	-2.93264	378.823	-26.9177	-0.248626	0	-0.479761	-0.00241486	0.311938	-0.0221652	23.1123	139.018	21.3508	-0.213654	0	-0.7458090000000001	0.118668	0.713777	0.109624
1.99	-2.3838	369.729	-28.0726	-0.250917	0	-0.479194	-0.00282641	0.438378	-0.0332848	23.3387	128.347	19.3022	-0.214033	0	-0.745259	0.100831	0.554501	0.0833916
2	-2.33794	360.666	-29.5934	-0.252774	0	-0.478381	-0.00347951	0.536771	-0.0440432	25.1091	119.309	17.6322	-0.215214	0	-0.744648	0.105344	0.500557	0.0739751
2.01	-2.75591	350.917	-31.3018	-0.254352	0	-0.477354	-0.00455913	0.580524	-0.0517829	26.6121	111.459	16.2929	-0.215981	0	-0.74431	0.104708	0.438546	0.06410589999999999
2.02	-2.97047	341.893	-33.2968	-0.255973	0	-0.476218	-0.0053585	0.61675	-0.0600649	26.3844	102.194	14.7925	-0.21539	0	-0.74434	0.0927458	0.359229	0.0519982
2.03	-2.03987	334.186	-35.2876	-0.257847	0	-0.475456	-0.00429114	0.703007	-0.07423250000000001	24.8837	89.5998	13.1928	-0.214605	0	-0.743134	0.0968519	0.348739	0.0513489
2.04	0.0410744	327.281	-36.803	-0.259963	0	-0.474841	9.80427e-05	0.781205	-0.0878471	23.8066	73.87260000000001	11.0662	-0.214613	0	-0.739645	0.146458	0.454463	0.068079
2.05	2.80845	321.673	-37.607	-0.261955	0	-0.474248	0.00701359	0.8033169999999999	-0.0939165	23.7869	57.9953	8.62598	-0.214093	0	-0.733831	0.225646	0.5501509999999999	0.08182730000000001
2.06	6.27083	317.964	-37.7071	-0.263905	0	-0.47381	0.0143145	0.725818	-0.0860744	23.9629	44.3513	6.49598	-0.211028	0	-0.725564	0.312865	0.579059	0.0848129
2.07	9.935230000000001	315.119	-37.2918	-0.265753	0	-0.473529	0.019325	0.61294	-0.0725364	22.9125	33.3463	4.80389	-0.206154	0	-0.7148600000000001	0.402562	0.585879	0.0844023
2.08	12.9378	312.375	-36.7675	-0.26713	0	-0.473584	0.0230158	0.5556990000000001	-0.06540749999999999	19.3588	23.614	3.38752	-0.195937	0	-0.696889	0.491288	0.5992769999999999	0.0859688
2.09	15.1902	308.833	-36.2851	-0.267652	0	-0.47356	0.0261607	0.531876	-0.0624907	0	0	0	0	0	0	0	0	0
2.1	17.1801	302.916	-35.8614	-0.267114	0	-0.473274	0.025175	0.443879	-0.0525497	0	0	0	0	0	0	0	0	0
2.11	19.3863	293.218	-35.2135	-0.265735	0	-0.473072	0.021351	0.322935	-0.0387822	0	0	0	0	0	0	0	0	0
2.12	21.9205	280.57	-33.9345	-0.263364	0	-0.473134	0.0184686	0.236388	-0.0285908	0	0	0	0	0	0	0	0	0
2.13	24.3361	266.168	-32.0678	-0.259997	0	-0.473651	0.0137816	0.150732	-0.0181601	0	0	0	0	0	0	0	0	0
2.14	25.7002	251.751	-30.2111	-0.255346	0	-0.473923	0.00313234	0.0306834	-0.00368212	0	0	0	0	0	0	0	0	0
2.15	25.0869	239.845	-28.6968	-0.249419	0	-0.473955	-0.00498713	-0.0476798	0.00570476	0	0	0	0	0	0	0	0	0
2.16	23.5804	231.863	-27.1999	-0.243194	0	-0.474221	-0.0139225	-0.136898	0.0160595	32.7008	39.5856	7.50659	-0.185947	0	-0.724216	0.516984	0.625829	0.118676
2.17	22.6459	227.904	-25.7502	-0.237903	0	-0.474871	-0.0187172	-0.188366	0.0212829	41.0763	74.3484	11.0827	-0.198699	0	-0.740231	0.369251	0.668347	0.09962699999999999
2.18	22.3869	226.937	-24.7097	-0.233686	0	-0.476035	-0.0188412	-0.190994	0.0207961	38.3901	106.524	16.7177	-0.20095	0	-0.747259	0.264862	0.734936	0.115339
2.19	22.2794	230.147	-24.0495	-0.229906	0	-0.477175	-0.0202639	-0.209327	0.0218739	33.0947	120.323	17.6266	-0.197981	0	-0.749106	0.23987	0.8721	0.127758
2.2	22.5583	240.826	-23.3425	-0.226411	0	-0.478455	-0.0307402	-0.328173	0.0318089	31.0476	127.686	15.0027	-0.191931	0	-0.7491139999999999	0.278132	1.14384	0.134398
2.21	23.1714	262.01	-23.1382	-0.224032	0	-0.479584	-0.0504038	-0.56994	0.0503316	28.2124	141.764	15.1452	-0.183954	0	-0.750193	0.309636	1.55588	0.16622
2.22	24.9037	293.183	-24.0091	-0.223024	0	-0.480572	-0.0836341	-0.984595	0.0806296	23.3047	163.386	18.3617	-0.177335	0	-0.752101	0.286558	2.00901	0.225777
2.23	28.5844	329.893	-25.1746	-0.222469	0	-0.481524	-0.130997	-1.51184	0.115371	16.5581	193.876	23.7571	-0.173332	0	-0.754124	0.212155	2.48409	0.304394
2.24	32.5393	369.657	-26.1705	-0.221727	0	-0.482278	-0.193274	-2.19566	0.155445	9.68599	236.472	30.6763	-0.172137	0	-0.755318	0.125679	3.0683	0.398034
2.25	32.9941	410.551	-26.5714	-0.220528	0	-0.483094	-0.242003	-3.01128	0.194894	5.27329	294.963	38.2995	-0.173466	0	-0.755264	0.0682962	3.82017	0.496031
2.26	28.5001	449.196	-26.077	-0.218666	0	-0.484188	-0.245862	-3.87508	0.224959	5.53102	364.307	44.2966	-0.176301	0	-0.753985	0.07228030000000001	4.76081	0.578875
